<svg id="border-left" xmlns="http://www.w3.org/2000/svg" xmlns:xlink="http://www.w3.org/1999/xlink" viewBox="0 0 387.5 12.65"><defs><style>.cls-1{fill:url(#linear-gradient);}</style><linearGradient id="linear-gradient" y1="6.32" x2="388.83" y2="6.32" gradientTransform="translate(388.82 13.09) rotate(-179.87)" gradientUnits="userSpaceOnUse"><stop offset="0" stop-color="#00bf3c"/><stop offset="1" stop-color="#e3e3e3"/></linearGradient></defs><title>border-right</title><path class="cls-1" d="M388.82,12.44s0-8.5-4.47-12L354.85.36s-17,2.46-31-.07c0,0-23.5,1.95-27-.06,0,0-22,5-61.5-.14l-73.5-.17s-28.51,3.94-35,2.42-21,1-44.5-.1-78-.18-81,.32,0,3,0,3L15.83,8.09,0,8.06s24.83,3.06,36.33,3.58,63.51-2.36,72.5.16l42.5.15c28-2.49,34-3,34-3s39-.91,39.5.59,27.5.56,33,.57c0,0-5,3.6,26.5,2.12,0,0,18-1,21-2s-4.5.88,33,2.52c0,0,15,.48,22,0S388.82,12.44,388.82,12.44Z"/></svg>