<svg id="border-left" xmlns="http://www.w3.org/2000/svg" xmlns:xlink="http://www.w3.org/1999/xlink" viewBox="0 0 387.5 12.65"><defs><style>.cls-1{fill:url(#linear-gradient);}</style><linearGradient id="linear-gradient" y1="6.32" x2="388.83" y2="6.32" gradientUnits="userSpaceOnUse"><stop offset="0" stop-color="#00bf3c"/><stop offset="1" stop-color="#e3e3e3"/></linearGradient></defs><title>border-left</title><path class="cls-1" d="M0,.65s0,8.5,4.5,12H34s17-2.5,31,0c0,0,23.5-2,27,0,0,0,22-5,61.5,0H227s28.5-4,35-2.5,21-1,44.5,0,78,0,81-.5,0-3,0-3L373,4.15h15.83S364,1.15,352.5.65,289,3.15,280,.65L237.5.59c-28,2.56-34,3.06-34,3.06s-39,1-39.5-.5-27.5-.5-33-.5c0,0,5-3.61-26.5-2.06,0,0-18,1.06-21,2.06S88,1.75,50.5.2c0,0-15-.45-22,0S0,.65,0,.65Z"/></svg>